<?xml version="1.0" encoding="utf-8"?>
<!-- Generator: Adobe Illustrator 28.2.0, SVG Export Plug-In . SVG Version: 6.00 Build 0)  -->
<svg version="1.1" id="图层_1" xmlns="http://www.w3.org/2000/svg" xmlns:xlink="http://www.w3.org/1999/xlink" x="0px" y="0px"
	 viewBox="0 0 500 500" style="enable-background:new 0 0 500 500;" xml:space="preserve">
<style type="text/css">
	.st0{fill:#FF9900;}
	.st1{fill:#FFFFFF;}
</style>
<g>
	<circle class="st0" cx="250" cy="250" r="205.81"/>
	<g>
		<rect x="231.67" y="232.18" class="st1" width="36.66" height="35.64"/>
		<path class="st1" d="M355.85,285.46c0-10.64-3.15-20.53-8.53-28.85v-95.36h-43.36v-33.67h-35.64l0,69.31h43.36v36.13
			c-2.97-0.51-6-0.84-9.12-0.84h-9.61v35.64h9.61c9.75,0,17.65,7.9,17.65,17.65s-7.9,17.65-17.65,17.65h-34.24l0,69.31h35.64v-33.74
			C332.74,337.93,355.85,314.42,355.85,285.46z"/>
		<path class="st1" d="M188.31,266.98c2.97,0.51,6,0.84,9.12,0.84h9.61v-35.64h-9.61c-9.75,0-17.65-7.9-17.65-17.65
			c0-9.75,7.9-17.65,17.65-17.65h34.24l0-69.31h-35.64v33.74c-28.78,0.75-51.89,24.26-51.89,53.21c0,10.64,3.15,20.53,8.53,28.85
			v95.36h43.36v33.67h35.64v-69.31h-43.36V266.98z"/>
	</g>
</g>
</svg>
